HIERARCHY
ROOT Hips
{
     OFFSET -4.38725 99.46970 1.21423
     CHANNELS 6 Xposition Yposition Zposition Zrotation Xrotation Yrotation
     JOINT Spine
     {
          OFFSET 0.00000 11.89050 0.00000
          CHANNELS 3 Zrotation Xrotation Yrotation
          JOINT Spine1
          {
               OFFSET 0.00000 25.65740 0.12766
               CHANNELS 3 Zrotation Xrotation Yrotation
               JOINT HEad
               {
                    OFFSET 0.00000 8.73416 0.01134
                    CHANNELS 3 Zrotation Xrotation Yrotation
                    End Site
                    {
                         OFFSET -0.29000 12.77420 2.51395
                    }
               }
               JOINT LeftShoulder1
               {
                    OFFSET 8.99000 -0.36225 -0.22000
                    CHANNELS 3 Zrotation Xrotation Yrotation
                    JOINT LeftArm
                    {
                         OFFSET 10.28270 -0.00338 0.32212
                         CHANNELS 3 Zrotation Xrotation Yrotation
                         JOINT LeftForeArm
                         {
                              OFFSET 32.76690 0.09914 -1.42434
                              CHANNELS 3 Zrotation Xrotation Yrotation
                              JOINT LeftHand
                              {
                                   OFFSET 27.56430 0.08536 1.02216
                                   CHANNELS 3 Zrotation Xrotation Yrotation
                                   End Site
                                   {
                                        OFFSET 16.74430 -0.60000 1.50291
                                   }
                              }
                         }
                    }
               }
               JOINT RightShoulder
               {
                    OFFSET -8.99000 -0.36225 -0.22000
                    CHANNELS 3 Zrotation Xrotation Yrotation
                    JOINT RightArm
                    {
                         OFFSET -10.28270 -0.00338 0.32212
                         CHANNELS 3 Zrotation Xrotation Yrotation
                         JOINT RightForeArm
                         {
                              OFFSET -32.89710 0.09914 -1.42434
                              CHANNELS 3 Zrotation Xrotation Yrotation
                              JOINT RightHand
                              {
                                   OFFSET -27.49210 0.08536 1.02216
                                   CHANNELS 3 Zrotation Xrotation Yrotation
                                   End Site
                                   {
                                        OFFSET -16.63120 -0.60000 1.50291
                                   }
                              }
                         }
                    }
               }
          }
     }
     JOINT LeftUpLeg
     {
          OFFSET 8.94580 -8.66707 0.10165
          CHANNELS 3 Zrotation Xrotation Yrotation
          JOINT LeftLeg
          {
               OFFSET 0.00000 -44.42270 1.37270
               CHANNELS 3 Zrotation Xrotation Yrotation
               JOINT LeftFoot
               {
                    OFFSET -0.25355 -42.09240 -1.46059
                    CHANNELS 3 Zrotation Xrotation Yrotation
                    JOINT LeftToes
                    {
                         OFFSET -0.04000 -4.41509 8.49910
                         CHANNELS 3 Zrotation Xrotation Yrotation
                         End Site
                         {
                              OFFSET 0.08000 -0.04745 9.77979
                         }
                    }
               }
          }
     }
     JOINT RightUpLeg
     {
          OFFSET -8.94580 -8.66707 0.10165
          CHANNELS 3 Zrotation Xrotation Yrotation
          JOINT RightLeg
          {
               OFFSET 0.00000 -44.42270 1.37270
               CHANNELS 3 Zrotation Xrotation Yrotation
               JOINT RightFoot
               {
                    OFFSET 0.25355 -42.09240 -1.46059
                    CHANNELS 3 Zrotation Xrotation Yrotation
                    JOINT RightToes
                    {
                         OFFSET 0.04000 -4.41509 8.49910
                         CHANNELS 3 Zrotation Xrotation Yrotation
                         End Site
                         {
                              OFFSET -0.08000 -0.13745 9.77979
                         }
                    }
               }
          }
     }
}
MOTION
Frames: 19
Frame Time: 0.01667
-4.38725 99.46970 1.21423 -2.22309 -2.88637 -21.22320 3.58313 3.88230 2.17653 2.12358 8.05045 4.38868 -5.06710 -3.22191 27.07910 -0.00000 -0.00000 0.00000 -78.72290 -41.00100 -90.35320 -13.68980 19.20530 -72.98190 5.55594 9.67997 -0.87718 10.68390 0.95805 4.15285 71.82730 -25.73540 89.70850 13.41940 25.78310 83.75670 -5.55712 9.68432 0.87760 7.23108 -8.49276 -6.40087 9.17506 8.92731 -32.74270 -22.47970 -13.27500 -1.06837 -0.28278 9.93603 0.06870 2.47179 -3.51903 1.39726 -10.93370 19.34970 26.08010 -1.32320 -18.60410 -0.37489 4.16516 3.60923 -2.50390 
-3.70395 99.52000 1.25659 -2.29133 -2.66547 -22.34160 3.37332 4.13695 2.11872 2.36783 8.52822 4.24497 -5.02770 -4.19647 28.01700 -0.00000 -0.00000 0.00000 -80.20370 -40.69050 -92.04450 -13.48160 18.41910 -72.64120 5.55594 9.67997 -0.87718 10.61140 0.96553 4.23531 75.93080 -24.42780 91.03300 15.25790 29.62410 84.81990 -5.55712 9.68432 0.87760 7.33860 -8.76012 -5.38471 8.65465 9.51908 -32.36240 -20.47250 -13.56000 -1.01591 -0.33694 10.67430 0.17932 2.36922 -3.70387 1.15939 -11.57950 18.59670 27.69380 -0.39965 -18.57910 -0.28417 4.37056 3.93750 -2.42094 
-3.00081 99.58350 1.28085 -2.27377 -2.46322 -23.41100 3.14069 4.41230 2.06755 2.50508 9.05232 4.11334 -4.84769 -5.17857 28.93040 -0.00000 -0.00000 0.00000 -81.18950 -40.43330 -93.40910 -13.20220 17.45360 -72.23080 5.55594 9.67997 -0.87718 10.71010 0.98154 4.31280 78.88980 -23.34550 92.00560 16.80860 32.73670 85.55970 -5.55712 9.68432 0.87760 7.27805 -9.02302 -4.20835 8.29445 9.89948 -32.13570 -18.84090 -13.24560 -0.87658 -0.23316 10.26510 -0.11984 2.19142 -3.94491 0.85842 -12.27500 17.86410 29.43460 0.88968 -18.98580 -0.15769 5.10712 4.90733 -2.44914 
-2.28718 99.65150 1.28702 -2.20705 -2.26247 -24.46230 2.89456 4.67942 2.03734 2.56096 9.56266 4.02698 -4.61789 -5.99704 29.72890 -0.00000 -0.00000 0.00000 -81.80270 -40.28090 -94.46860 -12.91310 16.47270 -71.82710 5.55594 9.67997 -0.87718 10.90450 1.00160 4.38068 81.08360 -22.60510 92.71420 18.18620 35.34400 86.03040 -5.55712 9.68432 0.87760 7.12662 -9.28852 -3.18006 8.04091 10.14140 -31.84090 -17.69450 -12.68860 -0.73315 -0.08763 9.48412 -0.53543 1.94749 -4.27602 0.51291 -12.92460 17.21350 31.17910 2.51200 -19.81620 0.02023 6.32150 6.39633 -2.67026 
-1.56739 99.72510 1.28634 -2.14685 -2.05793 -25.52660 2.65553 4.91729 2.04238 2.58047 10.01850 4.01438 -4.43294 -6.55628 30.37600 -0.00000 -0.00000 0.00000 -82.23570 -40.26130 -95.31300 -12.68080 15.65160 -71.49170 5.55594 9.67997 -0.87718 11.06410 1.01821 4.43606 82.80810 -22.19560 93.22370 19.42850 37.50500 86.26560 -5.55712 9.68432 0.87760 6.97944 -9.53627 -2.55067 7.78163 10.34760 -31.25620 -16.81780 -12.19010 -0.62103 -0.01929 8.92117 -0.72340 1.65305 -4.66382 0.14545 -13.41990 16.65730 32.63300 4.40394 -20.98200 0.26572 7.90688 8.18086 -3.18534 
-0.85194 99.80510 1.29306 -2.14002 -1.85600 -26.62660 2.43924 5.11910 2.08984 2.60629 10.40620 4.09046 -4.34168 -6.83857 30.90670 -0.00000 -0.00000 0.00000 -82.72970 -40.37930 -96.07900 -12.56840 15.16410 -71.28410 5.55594 9.67997 -0.87718 11.05210 1.02309 4.47530 84.18390 -21.99430 93.58080 20.45390 39.11150 86.32010 -5.55712 9.68432 0.87760 6.90664 -9.72809 -2.37605 7.44241 10.56600 -30.29100 -16.01810 -11.84170 -0.54047 -0.05526 8.68734 -0.58626 1.33672 -5.05086 -0.18130 -13.69380 16.24160 33.29640 6.48072 -22.31050 0.58516 9.65932 9.96017 -3.99306 
-0.15956 99.89140 1.31898 -2.19912 -1.66512 -27.76470 2.25517 5.28479 2.17707 2.65693 10.72500 4.24979 -4.34439 -6.86368 31.37300 -0.00000 -0.00000 0.00000 -83.51450 -40.61720 -96.90280 -12.62180 15.15330 -71.26660 5.55594 9.67997 -0.87718 10.78670 1.00908 4.48117 85.15770 -21.82270 93.80850 21.08920 39.97340 86.28550 -5.55712 9.68432 0.87760 6.92331 -9.83076 -2.51524 7.03603 10.76970 -29.01420 -15.30790 -11.60250 -0.48241 -0.14173 8.66827 -0.29334 1.01447 -5.40296 -0.42402 -13.73440 16.08600 32.66270 8.60719 -23.56350 0.95847 11.27440 11.43740 -4.91144 
0.48974 99.97940 1.36782 -2.29298 -1.49435 -28.91390 2.10121 5.41214 2.29087 2.71212 10.96980 4.46639 -4.39668 -6.65325 31.80820 -0.00000 -0.00000 0.00000 -84.70980 -40.94430 -97.86760 -12.86000 15.67950 -71.47420 5.55594 9.67997 -0.87718 10.29610 0.97624 4.44065 85.55080 -21.51240 93.91330 21.13090 39.89590 86.28000 -5.55712 9.68432 0.87760 6.98469 -9.84978 -2.75849 6.63261 10.92970 -27.59510 -14.79270 -11.43930 -0.44355 -0.21100 8.81201 -0.07212 0.65083 -5.75576 -0.61214 -13.54710 16.42470 30.53560 10.43020 -24.47370 1.30434 12.37260 12.37010 -5.60125 
1.08143 100.06400 1.43724 -2.37428 -1.35535 -30.02820 1.97248 5.49352 2.41064 2.72797 11.12410 4.70066 -4.43595 -6.21618 32.22400 -0.00000 -0.00000 0.00000 -86.26070 -41.32660 -98.97160 -13.26930 16.68220 -71.88930 5.55594 9.67997 -0.87718 9.70939 0.93515 4.37426 85.18430 -20.96740 93.90510 20.47140 38.77660 86.37240 -5.55712 9.68432 0.87760 7.03867 -9.81567 -2.94537 6.26722 11.03990 -26.20830 -14.49510 -11.31370 -0.41796 -0.22253 9.05239 -0.05408 0.17298 -6.17286 -0.81416 -13.13190 17.50760 27.22990 11.39220 -24.81800 1.48629 12.63450 12.63280 -5.71376 
1.60655 100.14000 1.52443 -2.41207 -1.25682 -31.06080 1.86828 5.52192 2.51423 2.67513 11.17310 4.90981 -4.43913 -5.57328 32.61140 -0.00000 -0.00000 0.00000 -87.99800 -41.73300 -100.15600 -13.80860 18.01060 -72.45190 5.55594 9.67997 -0.87718 9.15272 0.89831 4.32301 84.08570 -20.18860 93.82290 19.23570 36.73740 86.49870 -5.55712 9.68432 0.87760 7.06486 -9.76226 -2.98153 5.92186 11.11180 -25.00410 -14.33760 -11.16820 -0.39506 -0.17098 9.23851 -0.24101 -0.47442 -6.66051 -1.08028 -12.53560 19.41940 23.50760 11.23560 -24.61100 1.44135 12.12770 12.35700 -5.21049 
2.06000 100.20100 1.62694 -2.39588 -1.19826 -31.97720 1.77660 5.49866 2.58744 2.56138 11.11860 5.06438 -4.43326 -4.78770 32.95140 -0.00000 -0.00000 0.00000 -89.75840 -42.13130 -101.36500 -14.42270 19.49590 -73.08340 5.55594 9.67997 -0.87718 8.65260 0.86956 4.30936 82.62830 -19.26580 93.74590 17.78030 34.20990 86.50910 -5.55712 9.68432 0.87760 7.05358 -9.73068 -2.82071 5.59360 11.19020 -24.10510 -14.22580 -10.97880 -0.36866 -0.08143 9.21445 -0.53661 -1.29092 -7.14967 -1.41540 -11.90100 22.02110 20.23290 10.34450 -24.10560 1.25811 11.27520 11.84450 -4.40742 
2.43560 100.22600 1.73163 -2.32410 -1.17306 -32.75950 1.66455 5.44092 2.62749 2.41779 10.98430 5.16554 -4.44047 -3.94834 33.23240 -0.00000 -0.00000 0.00000 -91.40010 -42.47550 -102.54400 -15.04250 20.96780 -73.69900 5.55594 9.67997 -0.87718 8.15748 0.84412 4.32083 81.34070 -18.32670 93.75680 16.47650 31.77380 86.33030 -5.55712 9.68432 0.87760 6.99270 -9.78947 -2.48967 5.31060 11.38850 -23.55420 -14.08700 -10.78390 -0.34124 0.00914 8.88376 -0.81618 -2.22360 -7.57148 -1.76072 -11.40780 25.09760 17.99580 9.34673 -23.57760 1.06637 10.48230 11.33470 -3.68288 
2.74177 100.22400 1.83569 -2.21333 -1.18049 -33.41960 1.51452 5.35612 2.65405 2.27441 10.79400 5.24094 -4.45301 -3.10197 33.44360 -0.00000 -0.00000 0.00000 -92.74500 -42.71390 -103.60800 -15.58150 22.23860 -74.21540 5.55594 9.67997 -0.87718 7.63130 0.81630 4.32659 80.49290 -17.45760 93.88760 15.48760 29.79820 86.02260 -5.55712 9.68432 0.87760 6.88066 -9.90059 -2.09857 5.08112 11.66780 -23.23410 -13.89210 -10.57280 -0.31095 0.08017 8.25474 -1.01664 -3.21257 -7.80022 -2.02474 -11.14010 28.30170 16.96220 8.68692 -23.17310 0.94107 10.08400 11.05640 -3.34043 
2.98956 100.20700 1.93544 -2.09574 -1.21605 -33.97330 1.34682 5.25029 2.68243 2.15149 10.56370 5.31494 -4.47034 -2.23870 33.57180 -0.00000 -0.00000 0.00000 -93.58620 -42.82440 -104.44000 -15.95190 23.12820 -74.56650 5.55594 9.67997 -0.87718 7.09081 0.78493 4.30644 79.89470 -16.65720 94.10590 14.72740 28.23050 85.69000 -5.55712 9.68432 0.87760 6.74165 -10.01480 -1.78399 4.89629 11.97910 -22.97450 -13.67590 -10.37970 -0.28297 0.13036 7.52170 -1.14570 -4.20752 -7.75129 -2.13393 -11.05700 31.35920 16.90460 8.57902 -22.95850 0.91025 10.27590 11.22400 -3.46407 
3.19124 100.17400 2.02553 -2.01573 -1.27415 -34.43570 1.20615 5.12858 2.71631 2.06740 10.30720 5.39158 -4.50098 -1.38273 33.63890 -0.00000 -0.00000 0.00000 -93.76970 -42.82850 -104.93200 -16.09010 23.50920 -74.71510 5.55594 9.67997 -0.87718 6.56816 0.75240 4.26324 79.07980 -15.85970 94.35360 13.97680 26.71450 85.38970 -5.55712 9.68432 0.87760 6.60565 -10.14250 -1.62676 4.77594 12.39940 -22.69580 -13.53030 -10.37160 -0.27849 0.15303 7.07075 -1.19877 -5.19161 -7.40586 -2.03349 -10.97880 34.13360 17.27580 9.04712 -22.80090 0.96299 10.80940 11.68330 -3.81232 
3.35347 100.12900 2.09701 -1.99842 -1.35030 -34.82590 1.11046 4.99970 2.75475 2.03049 10.04220 5.46918 -4.52579 -0.63364 33.70720 -0.00000 -0.00000 0.00000 -93.23410 -42.76010 -105.01000 -15.96460 23.31500 -74.64830 5.55594 9.67997 -0.87718 6.07905 0.72088 4.20779 77.66430 -14.99330 94.59990 13.05450 24.89270 85.10770 -5.55712 9.68432 0.87760 6.48690 -10.26340 -1.62361 4.75424 12.91730 -22.41000 -13.55980 -10.66570 -0.31292 0.13151 7.23389 -1.13270 -6.18198 -6.77184 -1.67806 -10.62820 36.51750 17.37920 9.86285 -22.34910 1.03673 11.08170 11.89010 -4.02197 
3.47519 100.08100 2.14210 -2.03040 -1.44037 -35.17930 1.04412 4.87005 2.80283 2.02239 9.77808 5.56158 -4.50664 -0.08298 33.81860 -0.00000 -0.00000 0.00000 -91.99330 -42.63710 -104.64800 -15.57460 22.52850 -74.36790 5.55594 9.67997 -0.87718 5.63265 0.69173 4.14831 75.53970 -14.03180 94.86300 11.90820 22.60620 84.78110 -5.55712 9.68432 0.87760 6.38428 -10.34580 -1.70788 4.83311 13.45260 -22.15470 -13.77880 -11.23350 -0.38508 0.05388 8.02424 -0.91225 -7.19298 -5.89722 -1.06667 -9.82471 38.44530 16.66560 10.64780 -21.33870 1.04862 10.62060 11.39080 -3.85157 
3.55548 100.02900 2.15473 -2.07978 -1.53270 -35.54720 0.99982 4.73746 2.87130 2.01510 9.51047 5.69497 -4.43752 0.27503 33.96180 -0.00000 -0.00000 0.00000 -90.14260 -42.46370 -103.88400 -14.95130 21.18720 -73.88630 5.55594 9.67997 -0.87718 5.23404 0.66601 4.09410 72.86410 -13.01480 95.19010 10.60720 19.93170 84.34040 -5.55712 9.68432 0.87760 6.30652 -10.40420 -1.79424 4.96732 13.98020 -21.94070 -14.09240 -11.96200 -0.48240 -0.07595 9.18227 -0.55251 -8.21237 -4.86596 -0.27012 -8.60256 39.89470 14.92640 11.15160 -19.76610 0.96027 9.31686 10.08260 -3.22849 
3.59782 99.96700 2.12373 -2.11136 -1.61918 -35.96760 0.96218 4.60219 2.96776 1.99386 9.23856 5.88373 -4.37557 0.54276 34.09390 -0.00000 -0.00000 0.00000 -87.89450 -42.24640 -102.84200 -14.16230 19.40710 -73.23390 5.55594 9.67997 -0.87718 4.85593 0.64270 4.05101 69.98380 -12.02260 95.61010 9.28582 17.12290 83.75940 -5.55712 9.68432 0.87760 6.27095 -10.46970 -1.83366 5.07464 14.49490 -21.72720 -14.37610 -12.70190 -0.58407 -0.23075 10.36600 -0.13573 -9.22460 -3.76013 0.57434 -7.16043 40.85240 12.31540 11.38410 -17.82000 0.79633 7.36581 8.14709 -2.22610 
